<svg xmlns="http://www.w3.org/2000/svg" viewBox="0 0 655 168" ><g transform="translate(0 0) scale(.7)"><path fill="#00e5ff" d="M128 38h24l76 160h-37L140 88l-52 110H51Z"/><path fill="#ff2bd6" d="m119 145-15 30h72l-14-30Z"/></g><path fill="#f4efff" fill-rule="evenodd" transform="translate(215 24) scale(0.65)" d="M0 64 22 0h20l22 64H48l-4-13H20l-4 13Zm25-27h14l-7-23Z"/><path fill="#f4efff" fill-rule="evenodd" transform="translate(261.8 24) scale(0.65)" d="M0 64V0h17l18 29L53 0h17v64H54V26L35 54 16 26v38Z"/><path fill="#f4efff" fill-rule="evenodd" transform="translate(215 84) scale(1)" d="M0 64 22 0h20l22 64H48l-4-13H20l-4 13Zm25-27h14l-7-23Z"/><path fill="#f4efff" fill-rule="evenodd" transform="translate(287 84) scale(1)" d="M0 64V0h43l13 13v21l-11 10 16 20H41L26 45H16v19Zm16-34h20l4-4v-7l-4-4H16Z"/><path fill="#f4efff" fill-rule="evenodd" transform="translate(359 84) scale(1)" d="M56 0v16H20l-4 4v24l4 4h36v16H12L0 52V12L12 0Z"/><path fill="#f4efff" fill-rule="evenodd" transform="translate(431 84) scale(1)" d="M0 64 22 0h20l22 64H48l-4-13H20l-4 13Zm25-27h14l-7-23Z"/><path fill="#f4efff" fill-rule="evenodd" transform="translate(503 84) scale(1)" d="M0 0h42l16 16v32L42 64H0Zm16 16v32h19l7-7V23l-7-7Z"/><path fill="#f4efff" fill-rule="evenodd" transform="translate(575 84) scale(1)" d="M0 0h54v16H16v9h32v14H16v9h38v16H0Z"/></svg>
