<svg xmlns="http://www.w3.org/2000/svg"><symbol id="am-play" viewBox="0 0 24 24"><g fill="none" stroke="currentColor" stroke-width="1.8" stroke-linecap="round" stroke-linejoin="round"><path d="m8 4 12 8-12 8Z"/></g></symbol><symbol id="am-pause" viewBox="0 0 24 24"><g fill="none" stroke="currentColor" stroke-width="1.8" stroke-linecap="round" stroke-linejoin="round"><path d="M7 5h3v14H7zM14 5h3v14h-3z"/></g></symbol><symbol id="am-resume" viewBox="0 0 24 24"><g fill="none" stroke="currentColor" stroke-width="1.8" stroke-linecap="round" stroke-linejoin="round"><path d="M5 4v16m5-15 10 7-10 7Z"/></g></symbol><symbol id="am-restart" viewBox="0 0 24 24"><g fill="none" stroke="currentColor" stroke-width="1.8" stroke-linecap="round" stroke-linejoin="round"><path d="M4 10a8 8 0 1 1 1.8 7M4 4v6h6"/></g></symbol><symbol id="am-exit" viewBox="0 0 24 24"><g fill="none" stroke="currentColor" stroke-width="1.8" stroke-linecap="round" stroke-linejoin="round"><path d="M10 4H4v16h6m5-12 4 4-4 4m-7-4h12"/></g></symbol><symbol id="am-home" viewBox="0 0 24 24"><g fill="none" stroke="currentColor" stroke-width="1.8" stroke-linecap="round" stroke-linejoin="round"><path d="m3 10 9-7 9 7M5 9v11h5v-6h4v6h5V9"/></g></symbol><symbol id="am-menu" viewBox="0 0 24 24"><g fill="none" stroke="currentColor" stroke-width="1.8" stroke-linecap="round" stroke-linejoin="round"><path d="M4 6h16M4 12h12M4 18h16"/></g></symbol><symbol id="am-close" viewBox="0 0 24 24"><g fill="none" stroke="currentColor" stroke-width="1.8" stroke-linecap="round" stroke-linejoin="round"><path d="m6 6 12 12M18 6 6 18"/></g></symbol><symbol id="am-arrow-left" viewBox="0 0 24 24"><g fill="none" stroke="currentColor" stroke-width="1.8" stroke-linecap="round" stroke-linejoin="round"><path d="m10 5-7 7 7 7M3 12h18"/></g></symbol><symbol id="am-arrow-right" viewBox="0 0 24 24"><g fill="none" stroke="currentColor" stroke-width="1.8" stroke-linecap="round" stroke-linejoin="round"><path d="m14 5 7 7-7 7M3 12h18"/></g></symbol><symbol id="am-arrow-up" viewBox="0 0 24 24"><g fill="none" stroke="currentColor" stroke-width="1.8" stroke-linecap="round" stroke-linejoin="round"><path d="m5 10 7-7 7 7M12 3v18"/></g></symbol><symbol id="am-arrow-down" viewBox="0 0 24 24"><g fill="none" stroke="currentColor" stroke-width="1.8" stroke-linecap="round" stroke-linejoin="round"><path d="m5 14 7 7 7-7M12 3v18"/></g></symbol><symbol id="am-fullscreen" viewBox="0 0 24 24"><g fill="none" stroke="currentColor" stroke-width="1.8" stroke-linecap="round" stroke-linejoin="round"><path d="M8 3H3v5m13-5h5v5M3 16v5h5m13-5v5h-5"/></g></symbol><symbol id="am-volume-on" viewBox="0 0 24 24"><g fill="none" stroke="currentColor" stroke-width="1.8" stroke-linecap="round" stroke-linejoin="round"><path d="M3 9h4l5-5v16l-5-5H3zM16 8a6 6 0 0 1 0 8m3-11a10 10 0 0 1 0 14"/></g></symbol><symbol id="am-volume-off" viewBox="0 0 24 24"><g fill="none" stroke="currentColor" stroke-width="1.8" stroke-linecap="round" stroke-linejoin="round"><path d="M3 9h4l5-5v16l-5-5H3zm13 0 5 6m0-6-5 6"/></g></symbol><symbol id="am-music" viewBox="0 0 24 24"><g fill="none" stroke="currentColor" stroke-width="1.8" stroke-linecap="round" stroke-linejoin="round"><path d="M9 17V5l11-2v12M9 9l11-2"/><ellipse cx="6" cy="18" rx="3" ry="3"/><ellipse cx="17" cy="16" rx="3" ry="3"/></g></symbol><symbol id="am-settings" viewBox="0 0 24 24"><g fill="none" stroke="currentColor" stroke-width="1.8" stroke-linecap="round" stroke-linejoin="round"><path d="M4 6h4m4 0h8M4 12h10m4 0h2M4 18h2m4 0h10M8 3v6m8 0v6M8 15v6"/></g></symbol><symbol id="am-keyboard" viewBox="0 0 24 24"><g fill="none" stroke="currentColor" stroke-width="1.8" stroke-linecap="round" stroke-linejoin="round"><rect x="2" y="5" width="20" height="14" rx="2"/><path d="M6 9h.1M10 9h.1M14 9h.1M18 9h.1M6 12h.1M10 12h.1M14 12h.1M18 12h.1M7 15h10"/></g></symbol><symbol id="am-mouse" viewBox="0 0 24 24"><g fill="none" stroke="currentColor" stroke-width="1.8" stroke-linecap="round" stroke-linejoin="round"><rect x="6" y="2" width="12" height="20" rx="6"/><path d="M12 2v7M6 10h12"/></g></symbol><symbol id="am-move" viewBox="0 0 24 24"><g fill="none" stroke="currentColor" stroke-width="1.8" stroke-linecap="round" stroke-linejoin="round"><path d="M12 3v18M3 12h18m-12-6 3-3 3 3m-6 12 3 3 3-3M6 9l-3 3 3 3m12-6 3 3-3 3"/></g></symbol><symbol id="am-look" viewBox="0 0 24 24"><g fill="none" stroke="currentColor" stroke-width="1.8" stroke-linecap="round" stroke-linejoin="round"><path d="M2 12s4-7 10-7 10 7 10 7-4 7-10 7S2 12 2 12Z"/><circle cx="12" cy="12" r="3"/></g></symbol><symbol id="am-run" viewBox="0 0 24 24"><g fill="none" stroke="currentColor" stroke-width="1.8" stroke-linecap="round" stroke-linejoin="round"><circle cx="15" cy="4" r="2"/><path d="m5 9 5-2 4 4 5 1m-8-3-3 6 5 2-1 5m-4-7-3 5H2"/></g></symbol><symbol id="am-interact" viewBox="0 0 24 24"><g fill="none" stroke="currentColor" stroke-width="1.8" stroke-linecap="round" stroke-linejoin="round"><path d="M8 13V5a2 2 0 0 1 4 0v6l5 1a3 3 0 0 1 3 3l-1 5H9l-5-6a2 2 0 0 1 3-2l1 1Z"/></g></symbol><symbol id="am-joystick" viewBox="0 0 24 24"><g fill="none" stroke="currentColor" stroke-width="1.8" stroke-linecap="round" stroke-linejoin="round"><circle cx="10" cy="5" r="3"/><path d="M10 8v7M5 13l-3 7h20l-3-7h-5"/><circle cx="17" cy="17" r=".7"/></g></symbol><symbol id="am-cabinet" viewBox="0 0 24 24"><g fill="none" stroke="currentColor" stroke-width="1.8" stroke-linecap="round" stroke-linejoin="round"><path d="M6 2h12l2 3-1 9 2 4-2 4H5l-2-4 2-4-1-9Zm1 4h10v7H7zM5 17h14m-9 2h4"/></g></symbol><symbol id="am-trophy" viewBox="0 0 24 24"><g fill="none" stroke="currentColor" stroke-width="1.8" stroke-linecap="round" stroke-linejoin="round"><path d="M7 3h10v6a5 5 0 0 1-10 0Zm0 2H3v3a4 4 0 0 0 4 4m10-7h4v3a4 4 0 0 1-4 4m-5 2v5m-4 2h8m-6-3h4"/></g></symbol><symbol id="am-leaderboard" viewBox="0 0 24 24"><g fill="none" stroke="currentColor" stroke-width="1.8" stroke-linecap="round" stroke-linejoin="round"><path d="M3 13h6v8H3zM9 8h6v13H9zM15 11h6v10h-6zM12 2v2m-2-1h4"/></g></symbol><symbol id="am-medal" viewBox="0 0 24 24"><g fill="none" stroke="currentColor" stroke-width="1.8" stroke-linecap="round" stroke-linejoin="round"><circle cx="12" cy="9" r="6"/><path d="m7 13-2 8 7-3 7 3-2-8m-5-7v6M10 8l2-2 2 2"/></g></symbol><symbol id="am-star" viewBox="0 0 24 24"><g fill="none" stroke="currentColor" stroke-width="1.8" stroke-linecap="round" stroke-linejoin="round"><path d="m12 2 3 6.5 7 1-5 5 1 7-6-3.5L6 21l1-6.5-5-5 7-1Z"/></g></symbol><symbol id="am-heart" viewBox="0 0 24 24"><g fill="none" stroke="currentColor" stroke-width="1.8" stroke-linecap="round" stroke-linejoin="round"><path d="M12 21 3.5 12.5a5.7 5.7 0 0 1 8.5-7.6 5.7 5.7 0 0 1 8.5 7.6Z"/></g></symbol><symbol id="am-shield" viewBox="0 0 24 24"><g fill="none" stroke="currentColor" stroke-width="1.8" stroke-linecap="round" stroke-linejoin="round"><path d="m12 2 8 3v6c0 5-8 11-8 11S4 16 4 11V5Zm-4 9 3 3 5-6"/></g></symbol><symbol id="am-bolt" viewBox="0 0 24 24"><g fill="none" stroke="currentColor" stroke-width="1.8" stroke-linecap="round" stroke-linejoin="round"><path d="M14 2 4 14h7l-1 8L20 9h-7Z"/></g></symbol><symbol id="am-gem" viewBox="0 0 24 24"><g fill="none" stroke="currentColor" stroke-width="1.8" stroke-linecap="round" stroke-linejoin="round"><path d="m7 3-5 6 10 13L22 9l-5-6ZM2 9h20M7 3l5 19L17 3"/></g></symbol><symbol id="am-coin" viewBox="0 0 24 24"><g fill="none" stroke="currentColor" stroke-width="1.8" stroke-linecap="round" stroke-linejoin="round"><circle cx="12" cy="12" r="9"/><path d="m12 6 4 6-4 6-4-6Z"/></g></symbol><symbol id="am-target" viewBox="0 0 24 24"><g fill="none" stroke="currentColor" stroke-width="1.8" stroke-linecap="round" stroke-linejoin="round"><circle cx="12" cy="12" r="7"/><circle cx="12" cy="12" r="2"/><path d="M12 2v3m0 14v3M2 12h3m14 0h3"/></g></symbol><symbol id="am-timer" viewBox="0 0 24 24"><g fill="none" stroke="currentColor" stroke-width="1.8" stroke-linecap="round" stroke-linejoin="round"><circle cx="12" cy="14" r="8"/><path d="M12 14V9m-3-7h6m-3 0v4m6 1 2-2"/></g></symbol><symbol id="am-players" viewBox="0 0 24 24"><g fill="none" stroke="currentColor" stroke-width="1.8" stroke-linecap="round" stroke-linejoin="round"><circle cx="9" cy="7" r="4"/><path d="M2 21v-3a7 7 0 0 1 14 0v3m0-18a4 4 0 0 1 0 8m3 3a6 6 0 0 1 3 5v2"/></g></symbol><symbol id="am-info" viewBox="0 0 24 24"><g fill="none" stroke="currentColor" stroke-width="1.8" stroke-linecap="round" stroke-linejoin="round"><circle cx="12" cy="12" r="9"/><path d="M12 11v6m0-10v.1"/></g></symbol><symbol id="am-check" viewBox="0 0 24 24"><g fill="none" stroke="currentColor" stroke-width="1.8" stroke-linecap="round" stroke-linejoin="round"><path d="m4 12 5 5L20 6"/></g></symbol><symbol id="am-lock" viewBox="0 0 24 24"><g fill="none" stroke="currentColor" stroke-width="1.8" stroke-linecap="round" stroke-linejoin="round"><rect x="5" y="10" width="14" height="11" rx="2"/><path d="M8 10V6a4 4 0 0 1 8 0v4m-4 5v2"/></g></symbol></svg>
